<?xml version="1.0" encoding="UTF-8"?> <!-- Generator: Adobe Illustrator 24.0.0, SVG Export Plug-In . SVG Version: 6.00 Build 0) --> <svg xmlns="http://www.w3.org/2000/svg" xmlns:xlink="http://www.w3.org/1999/xlink" version="1.1" id="Layer_1" x="0px" y="0px" viewBox="0 0 80 80" style="enable-background:new 0 0 80 80;" xml:space="preserve"> <style type="text/css"> .st0{fill:#CC5559;} </style> <g> <path class="st0" d="M40,80C17.944,80,0,62.056,0,40S17.944,0,40,0s40,17.944,40,40S62.056,80,40,80z M40,5.581 C21.022,5.581,5.581,21.022,5.581,40S21.022,74.419,40,74.419c18.979,0,34.419-15.44,34.419-34.419S58.979,5.581,40,5.581z"></path> </g> <g> <g> <path class="st0" d="M31.397,59.202c-0.076,0.282-0.315,0.489-0.603,0.536c-0.75,0.122-1.445,0.218-2.082,0.286 c-0.773,0.081-1.526,0.122-2.258,0.122c-0.733,0-1.577-0.052-2.533-0.153c-0.72-0.077-1.503-0.182-2.35-0.316 c-0.447-0.071-0.733-0.528-0.597-0.961l13.267-42.288c0.088-0.282,0.347-0.488,0.641-0.52c0.872-0.097,1.694-0.18,2.464-0.249 c0.916-0.081,1.84-0.122,2.778-0.122c0.77,0,1.616,0.041,2.532,0.122c0.784,0.07,1.664,0.154,2.641,0.254 c0.297,0.03,0.559,0.237,0.647,0.522l13.083,42.33c0.135,0.436-0.159,0.897-0.612,0.961c-1.962,0.279-3.705,0.419-5.233,0.419 c-0.814,0-1.628-0.041-2.442-0.122c-0.671-0.068-1.384-0.163-2.137-0.285c-0.289-0.047-0.535-0.263-0.612-0.546l-1.998-7.305 c-0.108-0.394-0.517-0.62-0.913-0.517c-0.88,0.229-1.729,0.408-2.546,0.536c-1.038,0.163-2.067,0.244-3.081,0.244 c-0.936,0-1.892-0.07-2.868-0.214c-0.756-0.11-1.536-0.262-2.34-0.458c-0.394-0.096-0.795,0.125-0.901,0.517 C32.894,53.662,31.771,57.819,31.397,59.202z M40.523,30.277c-0.186-0.749-1.248-0.755-1.442-0.009L35.73,43.12 c0.691,0.204,1.342,0.366,1.953,0.488c0.61,0.122,1.241,0.183,1.892,0.183c0.692,0,1.372-0.05,2.044-0.153 c0.672-0.101,1.372-0.254,2.105-0.457L40.523,30.277z"></path> </g> </g> </svg> 