<?xml version="1.0" encoding="UTF-8"?> <!-- Generator: Adobe Illustrator 24.0.0, SVG Export Plug-In . SVG Version: 6.00 Build 0) --> <svg xmlns="http://www.w3.org/2000/svg" xmlns:xlink="http://www.w3.org/1999/xlink" version="1.1" id="b6117b06-2b45-45bc-b789-4a82ab6612dd" x="0px" y="0px" viewBox="0 0 300 172.374" style="enable-background:new 0 0 300 172.374;" xml:space="preserve"> <style type="text/css"> .st0{fill:#F2F2F2;} .st1{fill:#8EB2A6;} .st2{fill:#666666;} .st3{fill:#CCD6B8;} .st4{opacity:0.2;fill:#FFFFFF;enable-background:new ;} .st5{fill:#CC5559;} .st6{fill:#869199;} </style> <title>progressive_app</title> <circle class="st0" cx="65.002" cy="137.406" r="15.602"></circle> <circle class="st1" cx="67.539" cy="135.123" r="15.602"></circle> <rect x="80.103" y="117.86" class="st2" width="193.035" height="0.527"></rect> <path class="st2" d="M180.076,4.912H111.56V3.5H80.493v1.412H11.695c-2.56,0-4.635,2.075-4.635,4.635l0,0v93.819 c0,2.56,2.075,4.635,4.635,4.635h168.381c2.56,0,4.635-2.075,4.635-4.635V9.547C184.711,6.987,182.636,4.912,180.076,4.912 L180.076,4.912z"></path> <rect x="13.274" y="13.103" class="st3" width="165.223" height="93.203"></rect> <circle class="st3" cx="95.745" cy="8.866" r="1.695"></circle> <polygon class="st4" points="131.247,106.305 13.274,106.305 13.274,13.103 "></polygon> <circle class="st0" cx="39.127" cy="83.449" r="15.882"></circle> <rect x="134.296" y="63.368" class="st2" width="15.434" height="3.225"></rect> <rect x="115.637" y="38.259" class="st2" width="52.751" height="1.382"></rect> <rect x="115.637" y="42.636" class="st2" width="52.751" height="1.382"></rect> <rect x="115.637" y="47.013" class="st2" width="52.751" height="1.382"></rect> <rect x="115.637" y="51.389" class="st2" width="52.751" height="1.382"></rect> <rect x="115.637" y="55.766" class="st2" width="52.751" height="1.382"></rect> <rect x="161.938" y="14.993" class="st5" width="6.45" height="6.45"></rect> <path class="st2" d="M171.383,24.438h-7.832v-7.832h7.832V24.438z M163.891,24.097h7.151v-7.151h-7.151V24.097z"></path> <path class="st2" d="M189.35,104.611h-16.125v-1.162c0-0.127-0.103-0.23-0.23-0.23l0,0h-5.528c-0.127,0-0.23,0.103-0.23,0.23l0,0 v1.162h-3.455v-1.162c0-0.127-0.103-0.23-0.23-0.23l0,0h-5.528c-0.127,0-0.23,0.103-0.23,0.23l0,0v1.162h-3.455v-1.162 c0-0.127-0.103-0.23-0.23-0.23l0,0h-5.528c-0.127,0-0.23,0.103-0.23,0.23l0,0v1.162h-3.455v-1.162c0-0.127-0.103-0.23-0.23-0.23l0,0 h-5.528c-0.127,0-0.23,0.103-0.23,0.23l0,0v1.162h-3.455v-1.162c0-0.127-0.103-0.23-0.23-0.23l0,0h-5.528 c-0.127,0-0.23,0.103-0.23,0.23l0,0v1.162h-3.455v-1.162c0-0.127-0.103-0.23-0.23-0.23l0,0h-5.528c-0.127,0-0.23,0.103-0.23,0.23 l0,0v1.162h-3.455v-1.162c0-0.127-0.103-0.23-0.23-0.23l0,0H73.022c-0.127,0-0.23,0.103-0.23,0.23l0,0v1.162h-3.455v-1.162 c0-0.127-0.103-0.23-0.23-0.23l0,0h-5.528c-0.127,0-0.23,0.103-0.23,0.23l0,0v1.162h-3.455v-1.162c0-0.127-0.103-0.23-0.23-0.23l0,0 h-5.528c-0.127,0-0.23,0.103-0.23,0.23l0,0v1.162h-3.455v-1.162c0-0.127-0.103-0.23-0.23-0.23l0,0h-5.528 c-0.127,0-0.23,0.103-0.23,0.23l0,0v1.162h-3.455v-1.162c0-0.127-0.103-0.23-0.23-0.23l0,0H35.25c-0.127,0-0.23,0.103-0.23,0.23l0,0 v1.162h-3.455v-1.162c0-0.127-0.103-0.23-0.23-0.23l0,0H25.8c-0.127,0-0.23,0.103-0.23,0.23l0,0v1.162h-3.455v-1.162 c0-0.127-0.103-0.23-0.23-0.23l0,0h-5.528c-0.127,0-0.23,0.103-0.23,0.23l0,0v1.162H5.528c-3.053,0-5.528,2.475-5.528,5.528v2.5 c0,3.053,2.475,5.528,5.528,5.528H189.35c3.053,0,5.528-2.475,5.528-5.528v-2.5C194.879,107.086,192.403,104.611,189.35,104.611z"></path> <path class="st2" d="M42.971,93.369c-11.054,0-20.015-8.961-20.015-20.015S31.917,53.34,42.971,53.34s20.015,8.96,20.015,20.014 C62.973,84.403,54.02,93.356,42.971,93.369z M42.971,53.866c-10.763,0-19.488,8.725-19.488,19.488s8.725,19.488,19.488,19.488 s19.488-8.725,19.488-19.488C62.447,62.596,53.729,53.879,42.971,53.866z"></path> <rect x="154.368" y="8.57" class="st2" width="67.154" height="0.527"></rect> <rect x="106.965" y="147.619" class="st2" width="193.035" height="0.527"></rect> <rect x="50.74" y="171.847" class="st2" width="67.154" height="0.527"></rect> <rect x="124.038" y="144.842" class="st5" width="7.374" height="7.374"></rect> <path class="st2" d="M135.888,148.002h-8.954v-8.954h8.954V148.002z M127.324,147.613h8.175v-8.175h-8.175 C127.324,139.438,127.324,147.613,127.324,147.613z"></path> <rect x="209.626" y="5.794" class="st6" width="7.374" height="7.374"></rect> <path class="st2" d="M221.477,8.954h-8.954V0h8.954V8.954z M212.912,8.565h8.175V0.389h-8.175V8.565z"></path> <rect x="283.891" y="144.842" class="st6" width="7.374" height="7.374"></rect> <path class="st2" d="M295.741,148.002h-8.954v-8.954h8.954V148.002z M287.177,147.613h8.175v-8.175h-8.175V147.613z"></path> <path class="st2" d="M278.405,61.086h-0.626v-17.16c0-5.485-4.447-9.932-9.932-9.932l0,0h-36.356c-5.485,0-9.932,4.447-9.932,9.932 l0,0v94.143c0,5.485,4.447,9.932,9.932,9.932l0,0h36.356c5.485,0,9.932-4.447,9.932-9.932l0,0V73.301h0.626V61.086z"></path> <path class="st3" d="M275.664,44.51v94.005c0.001,4.096-3.32,7.418-7.416,7.419h-36.532c-4.096-0.001-7.417-3.322-7.416-7.419V44.51 c0-4.096,3.32-7.415,7.416-7.416h4.432c-0.735,1.802,0.131,3.858,1.933,4.593c0.422,0.172,0.874,0.261,1.33,0.261h20.828 c1.946,0,3.523-1.577,3.524-3.523c0-0.456-0.089-0.908-0.261-1.33h4.746C272.344,37.094,275.664,40.414,275.664,44.51z"></path> <rect x="244.541" y="99.077" class="st2" width="10.883" height="3.225"></rect> <rect x="231.384" y="73.968" class="st2" width="37.196" height="1.382"></rect> <rect x="231.384" y="78.345" class="st2" width="37.196" height="1.382"></rect> <rect x="231.384" y="82.722" class="st2" width="37.196" height="1.382"></rect> <rect x="231.384" y="87.098" class="st2" width="37.196" height="1.382"></rect> <rect x="231.384" y="91.475" class="st2" width="37.196" height="1.382"></rect> <rect x="244.832" y="55.614" class="st5" width="6.45" height="6.45"></rect> <path class="st2" d="M247.301,57.227v7.832h7.832v-7.832C255.133,57.227,247.301,57.227,247.301,57.227z M254.793,64.719h-7.153 v-7.153h7.153V64.719z"></path> <path class="st4" d="M275.664,128.476v10.039c0.001,4.096-3.32,7.418-7.416,7.419h-36.532c-4.096-0.001-7.417-3.322-7.416-7.419 V87.896l30.778,24.315l0.527,0.416l5.725,4.522l0.535,0.424L275.664,128.476z"></path> <circle class="st0" cx="246.822" cy="131.334" r="11.553"></circle> <path class="st2" d="M84.317,172.374c-12.654,0-22.911-10.258-22.911-22.911c0-12.654,10.258-22.911,22.911-22.911 s22.911,10.258,22.911,22.911C107.214,162.11,96.965,172.359,84.317,172.374z M84.317,127.077 c-12.363,0-22.385,10.022-22.385,22.385s10.022,22.385,22.385,22.385s22.385-10.022,22.385-22.385 C106.688,137.105,96.674,127.091,84.317,127.077z"></path> <path class="st2" d="M250.227,140.245c-7.999,0-14.484-6.485-14.484-14.484s6.485-14.484,14.484-14.484 c7.999,0,14.484,6.485,14.484,14.484C264.702,133.756,258.223,140.236,250.227,140.245z M250.227,111.803 c-7.709,0-13.958,6.249-13.958,13.958s6.249,13.958,13.958,13.958s13.958-6.249,13.958-13.958l0,0 C264.176,118.056,257.932,111.812,250.227,111.803z"></path> </svg> 